<svg fill="none" xmlns="http://www.w3.org/2000/svg" viewBox="0 15.36369254028627 81.19603669432249 35.10092232527815" data-asc="1.00927734375" width="52" height="26">
    <style>
        svg g {
            animation: rainbow 2.5s linear;
            animation-iteration-count: 1;
            animation-iteration-count: infinite;
        }
        @keyframes rainbow {
            100%, 0% { fill: #ff6161; }
            8% { fill: #ff7f00; }
            16% { fill: #ff0; }
            25% { fill: #7fff00; }
            33% { fill: lime; }
            41% { fill: #00ff7f; }
            50% { fill: aqua; }
            58% { fill: #007fff; }
            66% { fill: #2499ff; }
            75% { fill: #bf75ff; }
            83% { fill: #f3f; }
            91% { fill: #ff52ae; }
        }
    </style>
    <defs/><g fill="#000000"><g transform="translate(0, 0)"><path d="M9.52 15.36Q12.40 15.36 14.84 15.66Q17.29 15.97 19.34 16.72Q21.75 17.63 23.39 19.13Q25.02 20.63 26.00 22.68Q26.98 24.73 27.39 27.28Q27.81 29.83 27.81 32.81Q27.81 35.79 27.38 38.35Q26.95 40.92 25.95 42.98Q24.95 45.04 23.33 46.57Q21.70 48.10 19.34 49.02Q17.29 49.80 14.84 50.13Q12.40 50.46 9.52 50.46L0 50.46L0 15.36L9.52 15.36M7.81 45.51Q11.84 45.51 14.38 44.92Q16.92 44.34 18.36 42.90Q19.80 41.46 20.34 39.05Q20.87 36.65 20.87 32.98Q20.87 29.32 20.35 26.88Q19.82 24.44 18.48 22.99Q17.14 21.53 14.84 20.92Q12.55 20.31 9.03 20.31L6.84 20.31L6.84 45.51L7.81 45.51ZM42.14 15.36L42.14 50.46L35.33 50.46L35.33 15.36L42.14 15.36ZM81.20 15.36L81.20 50.46L73.66 50.46L58.30 24.22L58.30 50.46L51.49 50.46L51.49 15.36L59.03 15.36L74.39 41.60L74.39 15.36L81.20 15.36Z"/></g></g>
</svg>
